<svg xmlns="http://www.w3.org/2000/svg" xmlns:xlink="http://www.w3.org/1999/xlink" width="52.044" height="73.581" viewBox="0 0 52.044 73.581">
  <defs>
    <clipPath id="clip-path">
      <rect id="Rectangle_2552" data-name="Rectangle 2552" width="52.044" height="73.581" fill="none"/>
    </clipPath>
    <clipPath id="clip-path-2">
      <rect id="Rectangle_2552-2" data-name="Rectangle 2552" width="12.706" height="17.964" fill="#fff"/>
    </clipPath>
    <clipPath id="clip-path-3">
      <rect id="Rectangle_3333" data-name="Rectangle 3333" width="32.122" height="20.647" fill="#fff"/>
    </clipPath>
  </defs>
  <g id="Group_15719" data-name="Group 15719" transform="translate(-151 -1607)">
    <g id="Group_14112" data-name="Group 14112" transform="translate(151 1607)">
      <g id="Group_14111" data-name="Group 14111" transform="translate(0 0)" clip-path="url(#clip-path)">
        <path id="Path_27661" data-name="Path 27661" d="M26.027,0c4.383,7.487,8.755,13.745,12.689,19.381,7.728,11.068,13.328,19.067,13.328,28.187A26.022,26.022,0,0,1,0,47.568c0-9.12,5.592-17.119,13.33-28.187C17.276,13.744,21.637,7.487,26.025,0Z" transform="translate(0 0)" fill="#66b0f2"/>
      </g>
    </g>
    <g id="Group_15530" data-name="Group 15530" transform="translate(0 329)">
      <g id="Group_15531" data-name="Group 15531" transform="translate(0 -221)">
        <g id="Group_15529" data-name="Group 15529" transform="translate(171 1529.809)">
          <g id="Group_14111-2" data-name="Group 14111" transform="translate(0 0)" clip-path="url(#clip-path-2)">
            <path id="Path_27661-2" data-name="Path 27661" d="M6.354,0c1.07,1.828,2.138,3.356,3.1,4.732,1.887,2.7,3.254,4.655,3.254,6.882A6.353,6.353,0,0,1,0,11.613C0,9.387,1.365,7.434,3.254,4.732c.963-1.376,2.028-2.9,3.1-4.732Z" transform="translate(0 0)" fill="#fff"/>
          </g>
        </g>
        <g id="Group_15528" data-name="Group 15528" transform="translate(105 1582.982)">
          <g id="Group_15522" data-name="Group 15522" transform="translate(56 -37.982)" clip-path="url(#clip-path-3)">
            <path id="Path_28013" data-name="Path 28013" d="M11.432,20.638c-.828,0-1.656-.006-2.484,0-.3,0-.447-.058-.416-.417a7.214,7.214,0,0,0-2.218-5.818c-.883-.915-1.824-1.774-2.741-2.656A5.308,5.308,0,0,1,2.1,9.411a14.517,14.517,0,0,0-.977-2.324A7.1,7.1,0,0,1,.349,4.238C.281,3.031.113,1.829.005.624-.046.052.253-.163.755.131a2.85,2.85,0,0,1,.888.831,7.446,7.446,0,0,1,1.1,3.326,3.189,3.189,0,0,0,.84,1.827c1.121,1.238,2.2,2.516,3.305,3.767a1.387,1.387,0,0,0,.444.223c-.016-.167.023-.369-.058-.494C7,9.19,6.673,8.8,6.388,8.387,5.966,7.769,5.522,7.159,5.164,6.5c-.348-.637-.269-1.153.095-1.429a1.038,1.038,0,0,1,1.412.234A11.422,11.422,0,0,1,8.2,7.069a8.738,8.738,0,0,0,2.631,2.586,10.237,10.237,0,0,1,1.582,1.251,4.321,4.321,0,0,1,1.485,3.34c-.012.855-.1,1.712-.069,2.565a16.838,16.838,0,0,0,.283,1.994c.067.423.156.843.228,1.266.084.5.026.566-.471.567-.813,0-1.625,0-2.438,0" transform="translate(0 0)" fill="#fff"/>
            <path id="Path_28014" data-name="Path 28014" d="M195.879,20.643c-.812,0-1.626-.02-2.437.008-.442.015-.533-.169-.457-.553a13.34,13.34,0,0,1,.277-1.488c.436-1.36.111-2.74.132-4.106a5.223,5.223,0,0,1,2.258-4.252,9.684,9.684,0,0,1,.979-.683,7.621,7.621,0,0,0,2.378-2.325c.391-.564.845-1.086,1.282-1.617a2.2,2.2,0,0,1,.414-.362c.571-.415,1.018-.465,1.386-.168a1,1,0,0,1,.1,1.349c-.471.819-1.041,1.581-1.571,2.366-.205.3-.435.593-.617.909-.056.1.009.265.018.4.116-.048.268-.064.343-.148.979-1.1,1.9-2.257,2.932-3.3a5.862,5.862,0,0,0,1.483-3.252,9.876,9.876,0,0,1,.991-2.542,2.282,2.282,0,0,1,1-.813c.349-.179.6.04.563.442-.15,1.679-.3,3.357-.495,5.031a3.953,3.953,0,0,1-.376.981c-.478,1.159-.93,2.33-1.451,3.469a5.215,5.215,0,0,1-.928,1.4c-.864.911-1.789,1.765-2.7,2.636a7.856,7.856,0,0,0-2.565,4.754,6.441,6.441,0,0,0-.024,1.375c.034.372-.062.5-.435.49-.827-.018-1.656-.006-2.483-.006" transform="translate(-175.213 -0.005)" fill="#fff"/>
          </g>
        </g>
      </g>
    </g>
  </g>
</svg>
