<svg xmlns="http://www.w3.org/2000/svg" xmlns:xlink="http://www.w3.org/1999/xlink" width="52.044" height="73.581" viewBox="0 0 52.044 73.581">
  <defs>
    <clipPath id="clip-path">
      <rect id="Rectangle_2552" data-name="Rectangle 2552" width="52.044" height="73.581" fill="none"/>
    </clipPath>
  </defs>
  <g id="Group_15724" data-name="Group 15724" transform="translate(-151 -2055)">
    <g id="Group_14822" data-name="Group 14822" transform="translate(151 2055)">
      <g id="Group_14111" data-name="Group 14111" transform="translate(0 0)" clip-path="url(#clip-path)">
        <path id="Path_27661" data-name="Path 27661" d="M26.027,0c4.383,7.487,8.755,13.745,12.689,19.381,7.728,11.068,13.328,19.067,13.328,28.187A26.022,26.022,0,0,1,0,47.568c0-9.12,5.592-17.119,13.33-28.187C17.276,13.744,21.637,7.487,26.025,0Z" transform="translate(0 0)" fill="#66b0f2"/>
      </g>
    </g>
    <path id="Icon_ionic-md-settings" data-name="Icon ionic-md-settings" d="M18.664,12.934a5.434,5.434,0,0,0,.044-.869c0-.3-.044-.565-.044-.869L20.53,9.762a.4.4,0,0,0,.089-.565l-1.778-3a.433.433,0,0,0-.533-.174l-2.222.869a6.468,6.468,0,0,0-1.511-.869l-.311-2.3a.476.476,0,0,0-.444-.348H10.265a.476.476,0,0,0-.444.348l-.355,2.3a7.526,7.526,0,0,0-1.511.869L5.732,6.025A.416.416,0,0,0,5.2,6.2l-1.778,3a.525.525,0,0,0,.089.565L5.421,11.2c0,.3-.044.565-.044.869s.044.565.044.869L3.555,14.368a.4.4,0,0,0-.089.565l1.778,3a.433.433,0,0,0,.533.174L8,17.235a6.467,6.467,0,0,0,1.511.869l.355,2.3a.431.431,0,0,0,.444.348h3.555a.476.476,0,0,0,.444-.348l.356-2.3a7.521,7.521,0,0,0,1.511-.869L18.4,18.1a.416.416,0,0,0,.533-.174l1.778-3a.524.524,0,0,0-.089-.565Zm-6.622,2.172a3.042,3.042,0,1,1,3.111-3.041A3.058,3.058,0,0,1,12.043,15.106Z" transform="translate(164.625 2088.906)" fill="#fff"/>
    <g id="Icon_feather-search" data-name="Icon feather-search" transform="translate(158.057 2082.992)">
      <path id="Path_28295" data-name="Path 28295" d="M32.287,18.393A13.893,13.893,0,1,1,18.393,4.5,13.893,13.893,0,0,1,32.287,18.393Z" fill="none" stroke="#fff" stroke-linecap="round" stroke-linejoin="round" stroke-width="3"/>
      <path id="Path_28296" data-name="Path 28296" d="M5.081,5.849,0,0" transform="matrix(0.999, -0.035, 0.035, 0.999, 28.105, 28.296)" fill="none" stroke="#fff" stroke-linecap="round" stroke-linejoin="round" stroke-width="3"/>
    </g>
  </g>
</svg>
