<svg xmlns="http://www.w3.org/2000/svg" xmlns:xlink="http://www.w3.org/1999/xlink" width="52.044" height="73.581" viewBox="0 0 52.044 73.581">
  <defs>
    <clipPath id="clip-path">
      <rect id="Rectangle_2552" data-name="Rectangle 2552" width="52.044" height="73.581" fill="none"/>
    </clipPath>
  </defs>
  <g id="Group_15727" data-name="Group 15727" transform="translate(-151 -2390)">
    <g id="Group_14819" data-name="Group 14819" transform="translate(151 2390)">
      <g id="Group_14111" data-name="Group 14111" transform="translate(0 0)" clip-path="url(#clip-path)">
        <path id="Path_27661" data-name="Path 27661" d="M26.027,0c4.383,7.487,8.755,13.745,12.689,19.381,7.728,11.068,13.328,19.067,13.328,28.187A26.022,26.022,0,0,1,0,47.568c0-9.12,5.592-17.119,13.33-28.187C17.276,13.744,21.637,7.487,26.025,0Z" transform="translate(0 0)" fill="#66b0f2"/>
      </g>
    </g>
    <g id="Group_15524" data-name="Group 15524" transform="translate(0.484 325.027)">
      <path id="Icon_awesome-city" data-name="Icon awesome-city" d="M30.685,9.564H23.911V1.2a1.2,1.2,0,0,0-1.2-1.2H15.542a1.2,1.2,0,0,0-1.2,1.2V4.782H11.158V.8a.8.8,0,0,0-.8-.8h-.8a.8.8,0,0,0-.8.8V4.782H5.579V.8a.8.8,0,0,0-.8-.8h-.8a.8.8,0,0,0-.8.8V4.782H1.2A1.2,1.2,0,0,0,0,5.978V23.911A1.594,1.594,0,0,0,1.594,25.5H30.287a1.594,1.594,0,0,0,1.594-1.594V10.76A1.2,1.2,0,0,0,30.685,9.564ZM6.376,20.125a.6.6,0,0,1-.6.6H3.786a.6.6,0,0,1-.6-.6V18.132a.6.6,0,0,1,.6-.6H5.778a.6.6,0,0,1,.6.6Zm0-4.782a.6.6,0,0,1-.6.6H3.786a.6.6,0,0,1-.6-.6V13.35a.6.6,0,0,1,.6-.6H5.778a.6.6,0,0,1,.6.6Zm0-4.782a.6.6,0,0,1-.6.6H3.786a.6.6,0,0,1-.6-.6V8.568a.6.6,0,0,1,.6-.6H5.778a.6.6,0,0,1,.6.6Zm6.376,9.564a.6.6,0,0,1-.6.6H10.162a.6.6,0,0,1-.6-.6V18.132a.6.6,0,0,1,.6-.6h1.993a.6.6,0,0,1,.6.6Zm0-4.782a.6.6,0,0,1-.6.6H10.162a.6.6,0,0,1-.6-.6V13.35a.6.6,0,0,1,.6-.6h1.993a.6.6,0,0,1,.6.6Zm0-4.782a.6.6,0,0,1-.6.6H10.162a.6.6,0,0,1-.6-.6V8.568a.6.6,0,0,1,.6-.6h1.993a.6.6,0,0,1,.6.6Zm7.97,4.782a.6.6,0,0,1-.6.6H18.132a.6.6,0,0,1-.6-.6V13.35a.6.6,0,0,1,.6-.6h1.993a.6.6,0,0,1,.6.6Zm0-4.782a.6.6,0,0,1-.6.6H18.132a.6.6,0,0,1-.6-.6V8.568a.6.6,0,0,1,.6-.6h1.993a.6.6,0,0,1,.6.6Zm0-4.782a.6.6,0,0,1-.6.6H18.132a.6.6,0,0,1-.6-.6V3.786a.6.6,0,0,1,.6-.6h1.993a.6.6,0,0,1,.6.6Zm7.97,14.346a.6.6,0,0,1-.6.6H26.1a.6.6,0,0,1-.6-.6V18.132a.6.6,0,0,1,.6-.6h1.993a.6.6,0,0,1,.6.6Zm0-4.782a.6.6,0,0,1-.6.6H26.1a.6.6,0,0,1-.6-.6V13.35a.6.6,0,0,1,.6-.6h1.993a.6.6,0,0,1,.6.6Z" transform="translate(160.722 2097.791)" fill="#fff"/>
      <path id="Path_28016" data-name="Path 28016" d="M31.88,11.115c0,3.885-7.137,7.035-15.94,7.035S0,15,0,11.115,31.88,7.23,31.88,11.115Z" transform="translate(160.722 2110.12)" fill="#fff"/>
    </g>
  </g>
</svg>
