<svg xmlns="http://www.w3.org/2000/svg" xmlns:xlink="http://www.w3.org/1999/xlink" width="52.044" height="73.581" viewBox="0 0 52.044 73.581">
  <defs>
    <clipPath id="clip-path">
      <rect id="Rectangle_2552" data-name="Rectangle 2552" width="52.044" height="73.581" fill="none"/>
    </clipPath>
  </defs>
  <g id="Group_15726" data-name="Group 15726" transform="translate(-151 -2278)">
    <g id="Group_14820" data-name="Group 14820" transform="translate(151 2278)">
      <g id="Group_14111" data-name="Group 14111" transform="translate(0 0)" clip-path="url(#clip-path)">
        <path id="Path_27661" data-name="Path 27661" d="M26.027,0c4.383,7.487,8.755,13.745,12.689,19.381,7.728,11.068,13.328,19.067,13.328,28.187A26.022,26.022,0,0,1,0,47.568c0-9.12,5.592-17.119,13.33-28.187C17.276,13.744,21.637,7.487,26.025,0Z" transform="translate(0 0)" fill="#66b0f2"/>
      </g>
    </g>
    <g id="Group_15525" data-name="Group 15525" transform="translate(-159 387)">
      <path id="Path_28017" data-name="Path 28017" d="M9,4.02c4.971,0,9,.01,9,4.98A9,9,0,0,1,0,9C0,4.029,4.029,4.02,9,4.02Z" transform="translate(327 1940)" fill="#fff"/>
      <circle id="Ellipse_2900" data-name="Ellipse 2900" cx="6" cy="6" r="6" transform="translate(330 1930)" fill="#fff"/>
    </g>
    <g id="Icon_feather-arrow-up-left" data-name="Icon feather-arrow-up-left" transform="translate(147.76 2307.5)">
      <path id="Path_28018" data-name="Path 28018" d="M19.24,19.5l-8.74-9" fill="none" stroke="#fff" stroke-linecap="round" stroke-linejoin="round" stroke-width="2"/>
      <path id="Path_28019" data-name="Path 28019" d="M10.5,19.5v-9h8.74" fill="none" stroke="#fff" stroke-linecap="round" stroke-linejoin="round" stroke-width="2"/>
    </g>
    <g id="Icon_feather-arrow-up-left-2" data-name="Icon feather-arrow-up-left" transform="matrix(-0.259, 0.966, -0.966, -0.259, 209.815, 2312.905)">
      <path id="Path_28018-2" data-name="Path 28018" d="M19.24,19.5l-8.74-9" fill="none" stroke="#fff" stroke-linecap="round" stroke-linejoin="round" stroke-width="2"/>
      <path id="Path_28019-2" data-name="Path 28019" d="M10.5,19.5v-9h8.74" fill="none" stroke="#fff" stroke-linecap="round" stroke-linejoin="round" stroke-width="2"/>
    </g>
    <g id="Icon_feather-arrow-up-left-3" data-name="Icon feather-arrow-up-left" transform="translate(177.238 2285.265) rotate(45)">
      <path id="Path_28018-3" data-name="Path 28018" d="M19.24,19.5l-8.74-9" fill="none" stroke="#fff" stroke-linecap="round" stroke-linejoin="round" stroke-width="2"/>
      <path id="Path_28019-3" data-name="Path 28019" d="M10.5,19.5v-9h8.74" fill="none" stroke="#fff" stroke-linecap="round" stroke-linejoin="round" stroke-width="2"/>
    </g>
  </g>
</svg>
