<svg xmlns="http://www.w3.org/2000/svg" xmlns:xlink="http://www.w3.org/1999/xlink" width="56.948" height="73.581" viewBox="0 0 56.948 73.581">
  <defs>
    <clipPath id="clip-path">
      <rect id="Rectangle_2552" data-name="Rectangle 2552" width="52.044" height="73.581" fill="none"/>
    </clipPath>
    <clipPath id="clip-path-2">
      <rect id="Rectangle_3373" data-name="Rectangle 3373" width="56.948" height="32.551" fill="#fff"/>
    </clipPath>
  </defs>
  <g id="Group_15721" data-name="Group 15721" transform="translate(-148.912 -1831)">
    <g id="Group_14824" data-name="Group 14824" transform="translate(151 1831)">
      <g id="Group_14111" data-name="Group 14111" transform="translate(0 0)" clip-path="url(#clip-path)">
        <path id="Path_27661" data-name="Path 27661" d="M26.027,0c4.383,7.487,8.755,13.745,12.689,19.381,7.728,11.068,13.328,19.067,13.328,28.187A26.022,26.022,0,0,1,0,47.568c0-9.12,5.592-17.119,13.33-28.187C17.276,13.744,21.637,7.487,26.025,0Z" transform="translate(0 0)" fill="#66b0f2"/>
      </g>
    </g>
    <g id="Group_15655" data-name="Group 15655" transform="translate(153.912 1867.791)">
      <g id="Group_15654" data-name="Group 15654" transform="translate(-5 -4.468)" clip-path="url(#clip-path-2)">
        <path id="Path_28287" data-name="Path 28287" d="M153.732,95.276a19.4,19.4,0,0,1-2.211,1.213c-.636.3-1.286.565-1.944.81a1.751,1.751,0,0,0,.135,3.358,11.416,11.416,0,0,0,7.82-.581.541.541,0,0,1,.66.075q5.578,4.549,11.174,9.076a1.77,1.77,0,0,1,.78,1.769,1.722,1.722,0,0,1-2.724,1.131c-.75-.51-1.477-1.055-2.215-1.585q-3.173-2.28-6.344-4.562a.55.55,0,0,0-.683-.092.477.477,0,0,0-.19.543c.038.189.195.277.335.378l5.767,4.143c.816.586,1.641,1.162,2.445,1.764a1.734,1.734,0,0,1,.717,1.882,1.832,1.832,0,0,1-2.916,1.045l-4.4-3.16q-1.672-1.2-3.346-2.4c-.346-.247-.716-.177-.838.155-.11.3.048.491.277.655q1.53,1.094,3.056,2.193c1.273.914,2.554,1.818,3.815,2.747a1.83,1.83,0,1,1-2.188,2.935q-3.108-2.231-6.214-4.465c-.1-.069-.191-.142-.292-.2a.488.488,0,0,0-.692.087.516.516,0,0,0,.135.715c.291.224.593.433.892.648,1.36.978,2.725,1.95,4.078,2.937a1.623,1.623,0,0,1-1.8,2.7c-.853-.57-1.67-1.194-2.51-1.785-.193-.136-.111-.268-.049-.42a2.8,2.8,0,0,0-.68-3.154,2.694,2.694,0,0,0-2.33-.721c-.24.035-.321,0-.322-.263a2.81,2.81,0,0,0-2.745-2.873c-.264-.015-.341-.065-.312-.355a2.682,2.682,0,0,0-1.379-2.789,2.711,2.711,0,0,0-3.159.228c-.226.168-.279.149-.32-.136a2.81,2.81,0,0,0-4.6-1.837c-.51.4-1.014.81-1.5,1.241-.243.216-.422.253-.685.029a12.868,12.868,0,0,0-1.123-.825c-.21-.142-.217-.266-.088-.476q2.508-4.11,5-8.228c.55-.905,1.106-1.807,1.647-2.717a.5.5,0,0,1,.5-.273c1.437.023,2.874-.006,4.311-.059a22.7,22.7,0,0,0,3.872-.542,9.455,9.455,0,0,1,3.033-.091.509.509,0,0,1,.346.133" transform="translate(-126.188 -88.898)" fill="#fff"/>
        <path id="Path_28289" data-name="Path 28289" d="M365.49,91.964a3.24,3.24,0,0,1,1.151.217c1.618.577,3.236,1.152,4.85,1.739a.84.84,0,0,0,.623,0c1.113-.416,2.233-.814,3.345-1.233a.36.36,0,0,1,.524.171q3.113,5.012,6.252,10.007c.192.3.152.463-.11.695-.97.86-1.918,1.746-2.866,2.631-.2.19-.34.252-.523-.032a4.1,4.1,0,0,0-.948-.877q-5.673-4.611-11.348-9.219a.46.46,0,0,0-.595-.06,10.5,10.5,0,0,1-7.615.843c-.455-.117-.686-.367-.7-.736-.021-.4.177-.658.637-.826a23.442,23.442,0,0,0,5.143-2.652,3.7,3.7,0,0,1,2.183-.668" transform="translate(-334.336 -85.998)" fill="#fff"/>
        <path id="Path_28291" data-name="Path 28291" d="M211.648,318.094a1.853,1.853,0,0,1-.639,1.585c-1.27,1.059-2.54,2.116-3.826,3.155a1.827,1.827,0,1,1-2.3-2.836c1.261-1.052,2.523-2.1,3.8-3.135a1.725,1.725,0,0,1,1.947-.219,1.693,1.693,0,0,1,1.02,1.45" transform="translate(-190.934 -295.916)" fill="#fff"/>
        <path id="Path_28292" data-name="Path 28292" d="M270.281,372.55a1.846,1.846,0,0,1-.666,1.424c-1,.837-2.007,1.676-3.027,2.493a1.8,1.8,0,0,1-2.531-.257,1.781,1.781,0,0,1,.164-2.512c1.033-.9,2.1-1.77,3.175-2.618a1.661,1.661,0,0,1,1.9-.129,1.791,1.791,0,0,1,.991,1.6" transform="translate(-246.518 -346.671)" fill="#fff"/>
        <path id="Path_28293" data-name="Path 28293" d="M161.477,287.139a1.708,1.708,0,0,1-.642,1.394q-1.027.867-2.074,1.71a1.83,1.83,0,1,1-2.346-2.807q1.048-.892,2.128-1.746a1.7,1.7,0,0,1,1.917-.188,1.734,1.734,0,0,1,1.016,1.638" transform="translate(-145.622 -266.787)" fill="#fff"/>
        <path id="Path_28294" data-name="Path 28294" d="M337.965,418.91a1.817,1.817,0,0,1,1.713,1.153,1.8,1.8,0,0,1-.471,2.016c-.7.6-1.4,1.188-2.13,1.748a1.8,1.8,0,0,1-2.518-.336,1.822,1.822,0,0,1,.261-2.532c.636-.536,1.282-1.061,1.924-1.591a1.765,1.765,0,0,1,1.221-.457" transform="translate(-312.491 -391.739)" fill="#fff"/>
      </g>
    </g>
  </g>
</svg>
