<svg xmlns="http://www.w3.org/2000/svg" xmlns:xlink="http://www.w3.org/1999/xlink" width="440.734" height="443.898" viewBox="0 0 440.734 443.898">
  <defs>
    <clipPath id="clip-path">
      <rect id="Rectangle_3372" data-name="Rectangle 3372" width="440.734" height="443.898" fill="none"/>
    </clipPath>
    <clipPath id="clip-path-2">
      <rect id="Rectangle_3351" data-name="Rectangle 3351" width="26.98" height="42.829" fill="none"/>
    </clipPath>
    <clipPath id="clip-path-3">
      <rect id="Rectangle_3352" data-name="Rectangle 3352" width="29.316" height="37.932" fill="none"/>
    </clipPath>
    <clipPath id="clip-path-4">
      <rect id="Rectangle_3353" data-name="Rectangle 3353" width="39.493" height="27.383" fill="none"/>
    </clipPath>
    <clipPath id="clip-path-5">
      <rect id="Rectangle_3354" data-name="Rectangle 3354" width="36.909" height="30.813" fill="none"/>
    </clipPath>
    <clipPath id="clip-path-6">
      <rect id="Rectangle_3355" data-name="Rectangle 3355" width="34.273" height="33.673" fill="none"/>
    </clipPath>
    <clipPath id="clip-path-7">
      <rect id="Rectangle_3356" data-name="Rectangle 3356" width="39.428" height="27.352" fill="none"/>
    </clipPath>
    <clipPath id="clip-path-8">
      <rect id="Rectangle_3357" data-name="Rectangle 3357" width="36.915" height="30.812" fill="none"/>
    </clipPath>
    <clipPath id="clip-path-9">
      <rect id="Rectangle_3358" data-name="Rectangle 3358" width="17.94" height="28.479" fill="none"/>
    </clipPath>
    <clipPath id="clip-path-10">
      <rect id="Rectangle_3359" data-name="Rectangle 3359" width="19.493" height="25.221" fill="none"/>
    </clipPath>
    <clipPath id="clip-path-11">
      <rect id="Rectangle_3360" data-name="Rectangle 3360" width="26.261" height="18.208" fill="none"/>
    </clipPath>
    <clipPath id="clip-path-12">
      <rect id="Rectangle_3361" data-name="Rectangle 3361" width="24.542" height="20.488" fill="none"/>
    </clipPath>
    <clipPath id="clip-path-13">
      <rect id="Rectangle_3362" data-name="Rectangle 3362" width="22.789" height="22.389" fill="none"/>
    </clipPath>
    <clipPath id="clip-path-14">
      <rect id="Rectangle_3363" data-name="Rectangle 3363" width="26.216" height="18.187" fill="none"/>
    </clipPath>
    <clipPath id="clip-path-15">
      <rect id="Rectangle_3364" data-name="Rectangle 3364" width="24.546" height="20.488" fill="none"/>
    </clipPath>
  </defs>
  <g id="Group_15648" data-name="Group 15648" clip-path="url(#clip-path)">
    <path id="Path_28240" data-name="Path 28240" d="M440.734,220.366a221.925,221.925,0,0,1-1.358,24.478c-.069.672-.151,1.346-.233,2.017a218.759,218.759,0,0,1-10.853,46.678c-.288.823-.59,1.646-.892,2.471a217.831,217.831,0,0,1-10.894,24.9c-.288.549-.563,1.1-.851,1.648q-4.651,8.891-10.1,17.3-6.01,9.3-12.925,17.947c-.316.4-.645.8-.96,1.194a222.242,222.242,0,0,1-24.34,25.575c0,.014-.014.014-.027.027q-6.895,6.195-14.311,11.786c-.974.729-1.948,1.456-2.936,2.168l-.014.015A220.341,220.341,0,0,1,78.7,389.143h-.014C77.33,388,76,386.852,74.668,385.686a220.648,220.648,0,0,1-31.475-34.274c-.768-1.029-1.537-2.072-2.278-3.115-1.029-1.441-2.058-2.909-3.046-4.391-.535-.782-1.07-1.564-1.592-2.346-.041-.082-.1-.151-.137-.232A217.661,217.661,0,0,1,19.291,310.62v-.014c-.412-.892-.81-1.8-1.207-2.7a216.727,216.727,0,0,1-8.767-23.944c-.206-.686-.4-1.358-.59-2.044-.247-.782-.467-1.564-.686-2.36A220.142,220.142,0,0,1,.123,227.651C.041,225.223,0,222.808,0,220.366,0,98.665,98.665,0,220.367,0S440.734,98.665,440.734,220.366" fill="#1f2426"/>
    <path id="Path_28241" data-name="Path 28241" d="M438.942,184.659a218.759,218.759,0,0,1-10.853,46.678c-.288.823-.59,1.646-.892,2.47a217.747,217.747,0,0,1-10.894,24.9c-.288.549-.563,1.1-.851,1.646-20.663-4.967-29.266-14.626-62.7-14.626-45.017,0-45.017,17.535-90.035,17.535S217.7,245.73,172.679,245.73s-45.031,17.535-90.035,17.535c-33.89,0-42.287-9.947-63.554-14.846v-.014c-.137-.027-.288-.069-.439-.1A216.45,216.45,0,0,1,9.115,221.76c-.206-.686-.4-1.358-.59-2.044A221.634,221.634,0,0,1,.54,167.371c15.971.823,25.589,4.144,34.672,7.656,12.1,4.665,23.3,9.687,47.4,9.687,45.017,0,45.017-17.535,90.035-17.535s45.017,17.535,90.035,17.535,45.031-17.535,90.049-17.535c43.714,0,44.99,16.52,86.207,17.48" transform="translate(0.201 62.201)" fill="#54a0d8"/>
    <path id="Path_28242" data-name="Path 28242" d="M425.032,219.982a217.852,217.852,0,0,1-10.894,24.9c-.288.549-.563,1.1-.851,1.646q-4.651,8.891-10.1,17.3-6.01,9.3-12.925,17.947c-.316.4-.645.8-.96,1.194-10.62-4.1-20.636-8.466-41.848-8.466-40.215,0-40.215,15.669-80.417,15.669s-40.215-15.669-80.444-15.669-40.215,15.669-80.417,15.669c-34.439,0-39.392-11.5-65.351-14.791-.425-.056-.864-.11-1.317-.166l-.425-.041C38.37,274.1,37.67,273,36.971,271.9c-.713-1.139-1.427-2.317-2.14-3.484-.041-.082-.1-.151-.137-.233a220.736,220.736,0,0,1-18.207-33.7A216.45,216.45,0,0,1,6.95,207.935c-.206-.686-.4-1.36-.59-2.046a108.963,108.963,0,0,1,19.374-1.549c1.935,0,3.787.04,5.543.11a91.171,91.171,0,0,1,32.532,6.9c10.812,4.171,20.814,8.656,42.342,8.656,40.215,0,40.215-15.668,80.43-15.668s40.215,15.668,80.43,15.668,40.215-15.668,80.43-15.668c39.255,0,40.2,14.914,77.59,15.642" transform="translate(2.366 76.028)" fill="#3180b3"/>
    <path id="Path_28243" data-name="Path 28243" d="M329.221,293.244c-.178-.027-.343-.067-.521-.11A220.339,220.339,0,0,1,57.36,283.708H57.4c.357.041.713.069,1.056.111,1.811.177,3.485.412,5.035.686.316.055.617.108.919.163,2.127.412,4.061.893,5.872,1.428.453.124.892.259,1.317.4.508.166,1,.329,1.482.494.165.055.329.111.48.166.988.343,1.948.7,2.909,1.055.329.125.659.247.988.386.316.123.645.247.974.37.22.1.439.177.659.259q1.214.473,2.47.947c.22.1.453.178.686.262.329.123.659.247,1,.37.37.136.741.259,1.111.4.48.166.96.329,1.441.482.178.055.357.124.535.178.535.165,1.084.328,1.66.493.247.07.494.151.755.22,1.523.413,3.142.8,4.912,1.126l.892.165c.288.055.6.108.906.151s.617.1.947.136c1.5.22,3.1.4,4.83.535.316.027.659.056.988.07,1.99.137,4.13.2,6.462.2,29.705,0,29.705-11.579,59.424-11.579s29.719,11.579,59.438,11.579,29.705-11.579,59.424-11.579c2.154,0,4.157.054,6.023.177l.686.043c1.056.069,2.058.165,3.032.259.3.041.6.069.892.111a60.363,60.363,0,0,1,8.3,1.549c.467.111.919.235,1.358.358.151.04.288.081.425.124.22.069.453.136.672.192.453.136.892.274,1.331.425.22.069.425.137.645.2a2.56,2.56,0,0,0,.3.1c.316.111.645.219.96.343,1.18.412,2.305.837,3.416,1.264.686.259,1.358.52,2.031.794.137.056.274.1.4.151.412.152.81.316,1.221.468s.823.314,1.235.466.823.3,1.249.451c1.756.645,3.595,1.249,5.584,1.785.384.108.782.2,1.194.3.123.027.247.07.384.1a2.058,2.058,0,0,0,.4.082,3.259,3.259,0,0,0,.508.123" transform="translate(21.342 105.436)" fill="#00517b"/>
    <path id="Path_28244" data-name="Path 28244" d="M395.505,248.481q-6.01,9.3-12.925,17.947c-.316.4-.645.8-.96,1.194A222.357,222.357,0,0,1,357.28,293.2c0,.012-.014.012-.027.027q-6.895,6.193-14.311,11.786c-.974.727-1.948,1.453-2.936,2.167a3.259,3.259,0,0,0,.508.123c-.178-.027-.343-.067-.521-.108-.137-.027-.261-.069-.384-.1s-.261-.07-.384-.1c-.412-.1-.81-.193-1.194-.3-1.99-.535-3.828-1.14-5.584-1.784-.425-.151-.837-.3-1.249-.453s-.823-.3-1.235-.466-.81-.316-1.221-.468c-.123-.054-.261-.095-.4-.151-.672-.273-1.345-.535-2.031-.794-1.111-.427-2.236-.851-3.416-1.264-.316-.124-.645-.232-.96-.343a2.134,2.134,0,0,1-.3-.1c-.22-.067-.425-.136-.645-.2-.439-.151-.878-.288-1.331-.425-.22-.056-.453-.123-.672-.192-.137-.041-.274-.084-.425-.124-.439-.124-.892-.247-1.358-.357a60.347,60.347,0,0,0-8.3-1.55c-.288-.041-.59-.069-.892-.111-.974-.095-1.976-.191-3.032-.259l-.686-.041c-1.866-.123-3.869-.178-6.023-.178-29.719,0-29.719,11.579-59.424,11.579s-29.719-11.579-59.438-11.579-29.719,11.579-59.424,11.579c-2.333,0-4.473-.067-6.462-.2-.329-.014-.672-.043-.988-.07-1.729-.136-3.334-.316-4.83-.535-.329-.04-.631-.081-.947-.136s-.617-.1-.906-.151-.6-.11-.892-.165c-1.77-.329-3.389-.713-4.912-1.125-.261-.069-.508-.151-.755-.219-.576-.166-1.125-.329-1.66-.494-.178-.055-.357-.123-.535-.178-.48-.152-.96-.316-1.441-.48-.37-.139-.741-.262-1.111-.4-.343-.123-.672-.247-1-.37-.233-.084-.466-.165-.686-.261q-1.255-.473-2.47-.948c-.22-.081-.439-.163-.659-.259-.329-.124-.659-.247-.974-.37s-.659-.261-.988-.384c-.96-.358-1.921-.713-2.909-1.056-.151-.055-.316-.111-.48-.165-.48-.166-.974-.329-1.482-.494-.425-.139-.864-.274-1.317-.4-1.811-.535-3.746-1.017-5.872-1.428-.3-.053-.6-.108-.919-.163-1.55-.274-3.224-.508-5.035-.686-.343-.041-.7-.069-1.056-.111h-.055c-1.358-1.137-2.689-2.29-4.02-3.456a220.659,220.659,0,0,1-31.475-34.276c-.425-.055-.864-.108-1.317-.163-.137-.014-.274-.029-.425-.043-.713-1.083-1.413-2.18-2.113-3.279-.713-1.137-1.427-2.317-2.14-3.485-.041-.082-.1-.15-.137-.233.274-.1.535-.192.81-.3,1.715-.631,3.375-1.3,5.09-1.948a71.279,71.279,0,0,1,10.4-3.264A76.9,76.9,0,0,1,60.53,245.6c1.441,0,2.8.026,4.1.082a67.259,67.259,0,0,1,24.039,5.089c8,3.087,15.381,6.4,31.283,6.4,29.719,0,29.719-11.566,59.438-11.566s29.705,11.566,59.424,11.566S268.534,245.6,298.253,245.6s29.719,11.566,59.438,11.566c2.058,0,3.979-.055,5.776-.151,15.669-.907,21.939-5.462,32.038-8.534" transform="translate(10.049 91.379)" fill="#005f90"/>
    <path id="Path_28245" data-name="Path 28245" d="M168.457,375.865s-13.707-46.538-2.89-88.14a97.8,97.8,0,0,1,6.25-17.379,96.02,96.02,0,0,0,7.756-60.231,160.884,160.884,0,0,0-8.526-28.3" transform="translate(60.055 67.646)" fill="none" stroke="#0b0c0c" stroke-miterlimit="10" stroke-width="2"/>
    <g id="Group_15587" data-name="Group 15587" transform="translate(217.332 207.423)" style="isolation: isolate">
      <g id="Group_15586" data-name="Group 15586">
        <g id="Group_15585" data-name="Group 15585" clip-path="url(#clip-path-2)">
          <path id="Path_28246" data-name="Path 28246" d="M185.374,164.979c0,7.445-13.483,29.026-13.483,29.026s-13.49-21.6-13.49-29.026a13.49,13.49,0,0,1,26.973-.626q.008.313,0,.626" transform="translate(-158.398 -151.176)" fill="#9fb144"/>
        </g>
      </g>
    </g>
    <g id="Group_15590" data-name="Group 15590" transform="translate(239.52 241.608)" style="isolation: isolate">
      <g id="Group_15589" data-name="Group 15589">
        <g id="Group_15588" data-name="Group 15588" clip-path="url(#clip-path-3)">
          <path id="Path_28247" data-name="Path 28247" d="M201.68,196.97c-4.049,6.255-27.111,17.053-27.111,17.053s.413-25.464,4.463-31.711a13.489,13.489,0,0,1,22.724,14.541c-.026.038-.051.078-.075.117Z" transform="translate(-174.569 -176.091)" fill="#9fb144"/>
        </g>
      </g>
    </g>
    <g id="Group_15593" data-name="Group 15593" transform="translate(233.642 307.43)" style="isolation: isolate">
      <g id="Group_15592" data-name="Group 15592">
        <g id="Group_15591" data-name="Group 15591" clip-path="url(#clip-path-4)">
          <path id="Path_28248" data-name="Path 28248" d="M202.294,249.634c-6.648,3.352-32.009,1.03-32.009,1.03s13.214-21.771,19.869-25.122a13.489,13.489,0,1,1,12.265,24.029l-.123.063Z" transform="translate(-170.285 -224.064)" fill="#9fb144"/>
        </g>
      </g>
    </g>
    <g id="Group_15596" data-name="Group 15596" transform="translate(221.531 361.8)" style="isolation: isolate">
      <g id="Group_15595" data-name="Group 15595">
        <g id="Group_15594" data-name="Group 15594" clip-path="url(#clip-path-5)">
          <path id="Path_28249" data-name="Path 28249" d="M192.829,288.074c-5.988,4.426-31.371,6.43-31.371,6.43s9.338-23.693,15.333-28.119a13.489,13.489,0,1,1,16.173,21.592l-.134.1Z" transform="translate(-161.458 -263.69)" fill="#9fb144"/>
        </g>
      </g>
    </g>
    <g id="Group_15599" data-name="Group 15599" transform="translate(207.162 257.877)" style="isolation: isolate">
      <g id="Group_15598" data-name="Group 15598">
        <g id="Group_15597" data-name="Group 15597" clip-path="url(#clip-path-6)">
          <path id="Path_28250" data-name="Path 28250" d="M155.02,211.055c5.343,5.189,30.239,10.566,30.239,10.566s-6.1-24.725-11.444-29.912a13.486,13.486,0,0,0-18.795,19.346" transform="translate(-150.986 -187.948)" fill="#9fb144"/>
        </g>
      </g>
    </g>
    <g id="Group_15602" data-name="Group 15602" transform="translate(189.658 317.836)" style="isolation: isolate">
      <g id="Group_15601" data-name="Group 15601">
        <g id="Group_15600" data-name="Group 15600" clip-path="url(#clip-path-7)">
          <path id="Path_28251" data-name="Path 28251" d="M145.646,257.181c6.648,3.36,32.009,1.037,32.009,1.037S164.44,236.449,157.794,233.1a13.489,13.489,0,0,0-12.15,24.088Z" transform="translate(-138.228 -231.649)" fill="#9fb144"/>
        </g>
      </g>
    </g>
    <g id="Group_15605" data-name="Group 15605" transform="translate(186.131 381.509)" style="isolation: isolate">
      <g id="Group_15604" data-name="Group 15604">
        <g id="Group_15603" data-name="Group 15603" clip-path="url(#clip-path-8)">
          <path id="Path_28252" data-name="Path 28252" d="M141.2,302.438c5.986,4.426,31.378,6.43,31.378,6.43s-9.346-23.693-15.341-28.119a13.488,13.488,0,1,0-16.171,21.592l.134.1Z" transform="translate(-135.658 -278.055)" fill="#9fb144"/>
        </g>
      </g>
    </g>
    <path id="Path_28253" data-name="Path 28253" d="M85.686,211.092c.014.055.041.1.055.151.8,1.962,1.523,3.965,2.2,5.969a103.694,103.694,0,0,1,3.375,12.541l.041.165c.069.357.137.7.206,1.056a60.7,60.7,0,0,1,.933,7.835,1.576,1.576,0,0,0,.014.261l.041,1.317a64.735,64.735,0,0,1-5.173,26.947c-.233.549-.467,1.084-.713,1.633-.151.329-.3.672-.466,1a64.891,64.891,0,0,0-4.157,11.553c-.521,2.031-.96,4.089-1.331,6.133a112.516,112.516,0,0,0-.7,30.913v.027c.027.247.055.494.082.727v.055c.631,5.735,1.537,10.675,2.305,14.3" transform="translate(29.493 78.54)" fill="none" stroke="#0b0c0c" stroke-miterlimit="10" stroke-width="2"/>
    <g id="Group_15608" data-name="Group 15608" transform="translate(106.022 261.683)" style="isolation: isolate">
      <g id="Group_15607" data-name="Group 15607">
        <g id="Group_15606" data-name="Group 15606" clip-path="url(#clip-path-9)">
          <path id="Path_28254" data-name="Path 28254" d="M95.209,199.9c0,4.95-8.965,19.3-8.965,19.3s-8.969-14.364-8.969-19.3a8.97,8.97,0,0,1,17.934-.416q0,.208,0,.416" transform="translate(-77.271 -190.722)" fill="#9fb144"/>
        </g>
      </g>
    </g>
    <g id="Group_15611" data-name="Group 15611" transform="translate(120.774 284.414)" style="isolation: isolate">
      <g id="Group_15610" data-name="Group 15610">
        <g id="Group_15609" data-name="Group 15609" clip-path="url(#clip-path-10)">
          <path id="Path_28255" data-name="Path 28255" d="M106.05,221.172c-2.692,4.159-18.026,11.339-18.026,11.339s.274-16.931,2.966-21.086a8.97,8.97,0,0,1,15.111,9.669C106.084,221.119,106.068,221.145,106.05,221.172Z" transform="translate(-88.024 -207.289)" fill="#9fb144"/>
        </g>
      </g>
    </g>
    <g id="Group_15614" data-name="Group 15614" transform="translate(116.866 328.18)" style="isolation: isolate">
      <g id="Group_15613" data-name="Group 15613">
        <g id="Group_15612" data-name="Group 15612" clip-path="url(#clip-path-11)">
          <path id="Path_28256" data-name="Path 28256" d="M106.458,256.188c-4.419,2.23-21.283.685-21.283.685s8.787-14.475,13.212-16.7a8.969,8.969,0,0,1,8.156,15.978Z" transform="translate(-85.175 -239.187)" fill="#9fb144"/>
        </g>
      </g>
    </g>
    <g id="Group_15617" data-name="Group 15617" transform="translate(108.813 364.332)" style="isolation: isolate">
      <g id="Group_15616" data-name="Group 15616">
        <g id="Group_15615" data-name="Group 15615" clip-path="url(#clip-path-12)">
          <path id="Path_28257" data-name="Path 28257" d="M100.165,281.749c-3.98,2.943-20.859,4.275-20.859,4.275s6.21-15.754,10.2-18.7a8.969,8.969,0,1,1,10.753,14.357l-.089.066Z" transform="translate(-79.306 -265.536)" fill="#9fb144"/>
        </g>
      </g>
    </g>
    <g id="Group_15620" data-name="Group 15620" transform="translate(99.259 295.231)" style="isolation: isolate">
      <g id="Group_15619" data-name="Group 15619">
        <g id="Group_15618" data-name="Group 15618" clip-path="url(#clip-path-13)">
          <path id="Path_28258" data-name="Path 28258" d="M75.026,230.537c3.551,3.449,20.106,7.025,20.106,7.025s-4.053-16.439-7.609-19.888a8.967,8.967,0,0,0-12.5,12.863" transform="translate(-72.343 -215.173)" fill="#9fb144"/>
        </g>
      </g>
    </g>
    <g id="Group_15623" data-name="Group 15623" transform="translate(87.62 335.099)" style="isolation: isolate">
      <g id="Group_15622" data-name="Group 15622">
        <g id="Group_15621" data-name="Group 15621" clip-path="url(#clip-path-14)">
          <path id="Path_28259" data-name="Path 28259" d="M68.793,261.208c4.419,2.234,21.283.69,21.283.69s-8.787-14.475-13.206-16.7a8.969,8.969,0,0,0-8.079,16.016Z" transform="translate(-63.86 -244.23)" fill="#9fb144"/>
        </g>
      </g>
    </g>
    <g id="Group_15626" data-name="Group 15626" transform="translate(85.275 377.437)" style="isolation: isolate">
      <g id="Group_15625" data-name="Group 15625">
        <g id="Group_15624" data-name="Group 15624" clip-path="url(#clip-path-15)">
          <path id="Path_28260" data-name="Path 28260" d="M65.834,291.3c3.98,2.943,20.864,4.275,20.864,4.275s-6.214-15.754-10.2-18.7a8.969,8.969,0,1,0-10.753,14.357l.089.066Z" transform="translate(-62.151 -275.087)" fill="#9fb144"/>
        </g>
      </g>
    </g>
    <path id="Path_28261" data-name="Path 28261" d="M260.063,204.482c.014.055.041.1.055.151a105.286,105.286,0,0,1,5.571,18.509l.041.165c.069.357.137.7.206,1.056a61.23,61.23,0,0,1,.919,7.711.267.267,0,0,0,.014.11,1.755,1.755,0,0,0,.014.274,64.463,64.463,0,0,1-5.1,28.223.05.05,0,0,1-.014.041h-.014c-.357.892-.755,1.77-1.166,2.634a61.56,61.56,0,0,0-3.032,7.711c-.37,1.125-.7,2.264-1,3.4-.041.151-.082.288-.124.439-3.32,12.774-3.169,26.234-2.044,37.046.027.274.055.549.082.81.4,3.54.892,6.764,1.386,9.577.014.069.027.123.041.192v.014" transform="translate(94.377 76.08)" fill="none" stroke="#0b0c0c" stroke-miterlimit="10" stroke-width="2"/>
    <g id="Group_15629" data-name="Group 15629" transform="translate(345.288 252.613)" style="isolation: isolate">
      <g id="Group_15628" data-name="Group 15628">
        <g id="Group_15627" data-name="Group 15627" clip-path="url(#clip-path-9)">
          <path id="Path_28262" data-name="Path 28262" d="M269.593,193.29c0,4.95-8.965,19.3-8.965,19.3s-8.969-14.364-8.969-19.3a8.97,8.97,0,1,1,17.934-.416q0,.208,0,.416" transform="translate(-251.656 -184.112)" fill="#9fb144"/>
        </g>
      </g>
    </g>
    <g id="Group_15632" data-name="Group 15632" transform="translate(360.041 275.344)" style="isolation: isolate">
      <g id="Group_15631" data-name="Group 15631">
        <g id="Group_15630" data-name="Group 15630" clip-path="url(#clip-path-10)">
          <path id="Path_28263" data-name="Path 28263" d="M280.434,214.562c-2.692,4.159-18.026,11.339-18.026,11.339s.274-16.931,2.966-21.086a8.97,8.97,0,0,1,15.111,9.669C280.469,214.509,280.452,214.535,280.434,214.562Z" transform="translate(-262.408 -200.679)" fill="#9fb144"/>
        </g>
      </g>
    </g>
    <g id="Group_15635" data-name="Group 15635" transform="translate(356.132 319.11)" style="isolation: isolate">
      <g id="Group_15634" data-name="Group 15634">
        <g id="Group_15633" data-name="Group 15633" clip-path="url(#clip-path-11)">
          <path id="Path_28264" data-name="Path 28264" d="M280.842,249.578c-4.419,2.23-21.284.685-21.284.685s8.787-14.475,13.212-16.7a8.969,8.969,0,0,1,8.156,15.978Z" transform="translate(-259.559 -232.577)" fill="#9fb144"/>
        </g>
      </g>
    </g>
    <g id="Group_15638" data-name="Group 15638" transform="translate(348.079 355.262)" style="isolation: isolate">
      <g id="Group_15637" data-name="Group 15637">
        <g id="Group_15636" data-name="Group 15636" clip-path="url(#clip-path-12)">
          <path id="Path_28265" data-name="Path 28265" d="M274.548,275.139c-3.98,2.943-20.859,4.275-20.859,4.275s6.21-15.754,10.2-18.7a8.969,8.969,0,1,1,10.753,14.357l-.089.066Z" transform="translate(-253.69 -258.926)" fill="#9fb144"/>
        </g>
      </g>
    </g>
    <g id="Group_15641" data-name="Group 15641" transform="translate(338.525 286.162)" style="isolation: isolate">
      <g id="Group_15640" data-name="Group 15640">
        <g id="Group_15639" data-name="Group 15639" clip-path="url(#clip-path-13)">
          <path id="Path_28266" data-name="Path 28266" d="M249.41,223.927c3.551,3.449,20.106,7.025,20.106,7.025s-4.053-16.439-7.609-19.888a8.967,8.967,0,0,0-12.5,12.863" transform="translate(-246.727 -208.563)" fill="#9fb144"/>
        </g>
      </g>
    </g>
    <g id="Group_15644" data-name="Group 15644" transform="translate(326.886 326.03)" style="isolation: isolate">
      <g id="Group_15643" data-name="Group 15643">
        <g id="Group_15642" data-name="Group 15642" clip-path="url(#clip-path-14)">
          <path id="Path_28267" data-name="Path 28267" d="M243.177,254.6c4.419,2.234,21.283.69,21.283.69s-8.787-14.475-13.206-16.7a8.969,8.969,0,0,0-8.079,16.016Z" transform="translate(-238.244 -237.62)" fill="#9fb144"/>
        </g>
      </g>
    </g>
    <g id="Group_15647" data-name="Group 15647" transform="translate(324.541 368.367)" style="isolation: isolate">
      <g id="Group_15646" data-name="Group 15646">
        <g id="Group_15645" data-name="Group 15645" clip-path="url(#clip-path-15)">
          <path id="Path_28268" data-name="Path 28268" d="M240.218,284.689c3.98,2.943,20.864,4.275,20.864,4.275s-6.214-15.754-10.2-18.7a8.969,8.969,0,1,0-10.753,14.357l.089.066Z" transform="translate(-236.535 -268.477)" fill="#9fb144"/>
        </g>
      </g>
    </g>
    <path id="Path_28269" data-name="Path 28269" d="M104.546,189.533s6.453,4.028,13.508,7.673c.247.122.48.246.712.369,1.644.836,3.3,1.644,4.919,2.371.451.2.89.4,1.328.589.659.288,1.288.547,1.918.794h.027c.753.3,1.494.561,2.193.781a14.909,14.909,0,0,0,4.37.89h.589l1.494-.11a17.33,17.33,0,0,0,2-.328,21.457,21.457,0,0,0,3.193-.973c5.59-2.151,10.686-6.563,10.809-11.741.124-5.562-5.535-10.413-11.507-12.576-.713-.261-1.439-.48-2.165-.672a17.8,17.8,0,0,0-3.672-.534h-.74a6.309,6.309,0,0,0-.7.041A31.942,31.942,0,0,0,123.946,179l-1.275.575c-1.548.726-3.138,1.507-4.686,2.315l-.7.37c-6.755,3.534-12.741,7.275-12.741,7.275" transform="translate(38.898 65.508)" fill="#3180b3"/>
    <path id="Path_28270" data-name="Path 28270" d="M102.391,187.085c-1.541-1.509-2.475-4.831-.966-6.372s4.89-.715,6.431.794c1.568,1.468,3.469,8.589,3.469,8.589s-7.228-1.416-8.8-2.888c-.044-.04-.089-.081-.132-.124" transform="translate(37.452 66.931)" fill="#3180b3"/>
    <path id="Path_28271" data-name="Path 28271" d="M107.954,193.671c-1.509,1.541-4.831,2.475-6.372.966s-.715-4.89.794-6.431c1.468-1.568,8.589-3.469,8.589-3.469s-1.416,7.228-2.888,8.8c-.04.044-.081.089-.123.132" transform="translate(37.489 68.734)" fill="#3180b3"/>
    <path id="Path_28272" data-name="Path 28272" d="M133.306,201.443a6.426,6.426,0,0,0-1.795-.274c-.616-.027-1.452-.069-1.63-.314-.22-.316-.041-1.206.11-1.932a4.373,4.373,0,0,0,.055-2.671,4.1,4.1,0,0,0-2.124-1.589c-.6-.274-1.371-.63-1.452-.973-.11-.37.383-1.1.781-1.686a4.282,4.282,0,0,0,1.028-2.452,4.147,4.147,0,0,0-1.275-2.3c-.453-.523-1-1.194-.945-1.55.055-.328.767-.753,1.33-1.081a4.055,4.055,0,0,0,1.958-1.795,4.337,4.337,0,0,0-.3-2.644c-.206-.645-.48-1.535-.3-1.851.165-.273.987-.4,1.589-.479a4.4,4.4,0,0,0,2.275-.726c-.712-.259-1.439-.48-2.165-.671-.1.014-.206.027-.3.043-1.013.148-2.081.3-2.575,1.135s-.151,1.92.178,2.96a3.92,3.92,0,0,1,.329,1.753c-.137.357-.794.755-1.371,1.083-.9.534-1.836,1.083-2,2.055-.163.988.563,1.836,1.261,2.659a3.672,3.672,0,0,1,.945,1.478,3.7,3.7,0,0,1-.794,1.618c-.6.9-1.233,1.848-.973,2.807s1.247,1.426,2.206,1.863c.6.288,1.3.6,1.452.933a3.927,3.927,0,0,1-.137,1.807c-.233,1.083-.465,2.206.11,3a2.011,2.011,0,0,0,1.343.767Z" transform="translate(46.388 65.653)" fill="#54a0d8"/>
    <path id="Path_28273" data-name="Path 28273" d="M121.4,191.382c-.616.9-1.233,1.836-.987,2.809s1.247,1.424,2.206,1.863c.616.288,1.3.6,1.465.945a3.925,3.925,0,0,1-.151,1.795c-.233,1.083-.465,2.2.11,3s1.644.851,2.671.892a3.357,3.357,0,0,1,1.657.314l1.494-.11a2.316,2.316,0,0,0-.494-.849,3.865,3.865,0,0,0-2.589-.726c-.6-.027-1.452-.069-1.63-.316-.22-.314-.027-1.2.123-1.918a4.308,4.308,0,0,0,.041-2.685,4.056,4.056,0,0,0-2.124-1.589c-.6-.273-1.371-.63-1.452-.973-.1-.355.4-1.1.794-1.7a4.4,4.4,0,0,0,1.028-2.424,4.326,4.326,0,0,0-1.275-2.316c-.453-.52-1.014-1.191-.959-1.561.055-.316.767-.74,1.33-1.069a4.089,4.089,0,0,0,1.972-1.795,4.4,4.4,0,0,0-.314-2.658c-.206-.643-.48-1.534-.288-1.85.151-.259.973-.369,1.589-.465a3.779,3.779,0,0,0,2.479-.932,2.241,2.241,0,0,0,.425-1l-1.438.041a.221.221,0,0,1-.055.1,3.428,3.428,0,0,1-1.6.438c-1.028.151-2.1.288-2.59,1.137s-.15,1.9.178,2.946a4,4,0,0,1,.329,1.781c-.137.355-.794.74-1.371,1.083-.9.52-1.836,1.081-2,2.04-.151.987.575,1.836,1.273,2.658a3.834,3.834,0,0,1,.959,1.494,4.046,4.046,0,0,1-.808,1.6" transform="translate(44.632 65.508)" fill="#54a0d8"/>
    <path id="Path_28274" data-name="Path 28274" d="M117.2,190.581c-.616.918-1.247,1.85-.987,2.822s1.247,1.424,2.206,1.863c.6.288,1.287.6,1.452.932a3.972,3.972,0,0,1-.151,1.808,10.825,10.825,0,0,0-.2,1.151c.451.2.889.4,1.328.589v-.027a7.541,7.541,0,0,1,.22-1.426,4.407,4.407,0,0,0,.055-2.685A4.111,4.111,0,0,0,119,194.019c-.6-.273-1.371-.63-1.452-.973-.11-.369.4-1.11.794-1.7a4.387,4.387,0,0,0,1.028-2.424,4.243,4.243,0,0,0-1.275-2.3c-.453-.534-1.028-1.2-.959-1.561.055-.329.767-.74,1.33-1.083a4.089,4.089,0,0,0,1.972-1.795,4.306,4.306,0,0,0-.3-2.63,8.54,8.54,0,0,1-.357-1.342v-.027l-1.356.151a2.629,2.629,0,0,0,.082.451,9.766,9.766,0,0,0,.314,1.179,3.868,3.868,0,0,1,.329,1.74c-.137.369-.794.753-1.371,1.1-.9.52-1.836,1.081-2,2.04-.165.987.561,1.836,1.26,2.658a3.537,3.537,0,0,1,.959,1.494,3.7,3.7,0,0,1-.794,1.589" transform="translate(43.067 66.295)" fill="#54a0d8"/>
    <path id="Path_28275" data-name="Path 28275" d="M117.495,198.763a3.264,3.264,0,0,0-.2-1.535,4.751,4.751,0,0,0-2.461-1.992c-.705-.353-1.585-.792-1.688-1.217-.111-.458.461-1.383.919-2.125a5.784,5.784,0,0,0,1.2-3.046,5.483,5.483,0,0,0-1.483-2.887c-.521-.668-1.17-1.5-1.107-1.954.062-.4.885-.926,1.546-1.346a4.825,4.825,0,0,0,2.267-2.246,3.4,3.4,0,0,0,.1-1.448l-1.571.221a1.652,1.652,0,0,1-.025.652c-.144.432-.906.915-1.576,1.343-1.044.664-2.124,1.353-2.308,2.556-.172,1.239.659,2.3,1.463,3.329a4.758,4.758,0,0,1,1.11,1.862,5.1,5.1,0,0,1-.93,2.011c-.7,1.133-1.427,2.305-1.135,3.512s1.443,1.781,2.553,2.338c.705.353,1.505.751,1.7,1.179a1.468,1.468,0,0,1,.049.649Z" transform="translate(41.331 66.587)" fill="#54a0d8"/>
    <path id="Path_28276" data-name="Path 28276" d="M136.256,185.168a1.558,1.558,0,1,1-1.559-1.559,1.558,1.558,0,0,1,1.559,1.559" transform="translate(49.537 68.314)" fill="#fff"/>
    <path id="Path_28277" data-name="Path 28277" d="M136.256,185.168a1.558,1.558,0,1,1-1.559-1.559A1.558,1.558,0,0,1,136.256,185.168Z" transform="translate(49.537 68.314)" fill="none" stroke="#54a0d8" stroke-miterlimit="10" stroke-width="1"/>
    <path id="Path_28278" data-name="Path 28278" d="M245.236,192.984s-4.355,2.719-9.117,5.178c-.167.084-.324.167-.482.25-1.11.564-2.228,1.11-3.32,1.6-.3.139-.6.269-.9.4-.445.195-.87.37-1.3.536h-.018c-.509.2-1.008.379-1.48.527a10.067,10.067,0,0,1-2.95.6h-.4L224.271,202a11.543,11.543,0,0,1-1.349-.221,14.49,14.49,0,0,1-2.156-.657c-3.773-1.452-7.213-4.429-7.3-7.925-.084-3.754,3.735-7.028,7.767-8.489.48-.176.971-.324,1.461-.453a11.942,11.942,0,0,1,2.478-.361h.5a4.107,4.107,0,0,1,.472.027,21.537,21.537,0,0,1,5.99,1.951l.86.388c1.047.49,2.12,1.018,3.164,1.563l.472.25c4.558,2.386,8.6,4.911,8.6,4.911" transform="translate(79.424 68.42)" fill="#3180b3"/>
    <path id="Path_28279" data-name="Path 28279" d="M239.939,191.415c-1.062.993-5.941,1.95-5.941,1.95s1.283-4.808,2.342-5.8c1.039-1.018,3.322-1.575,4.34-.536s.388,3.283-.652,4.3c-.029.029-.059.056-.089.084" transform="translate(87.062 69.38)" fill="#3180b3"/>
    <path id="Path_28280" data-name="Path 28280" d="M236.107,195.688c-.993-1.062-1.95-5.941-1.95-5.941s4.808,1.283,5.8,2.342c1.018,1.039,1.575,3.322.536,4.34s-3.283.388-4.3-.652c-.029-.029-.056-.059-.084-.089" transform="translate(87.121 70.598)" fill="#3180b3"/>
    <path id="Path_28281" data-name="Path 28281" d="M220.942,201.68a1.36,1.36,0,0,0,.907-.517,2.571,2.571,0,0,0,.073-2.025,2.665,2.665,0,0,1-.092-1.221c.1-.222.574-.435.98-.628.648-.3,1.314-.611,1.49-1.258a2.482,2.482,0,0,0-.657-1.9,1.223,1.223,0,0,1,.1-2.09c.472-.554.962-1.128.851-1.795s-.74-1.026-1.35-1.386c-.388-.222-.831-.491-.925-.731a2.668,2.668,0,0,1,.222-1.184,2.54,2.54,0,0,0,.121-2c-.333-.565-1.055-.667-1.738-.768l-.2-.027c-.49.129-.98.277-1.461.453a2.962,2.962,0,0,0,1.535.49c.407.056.962.139,1.073.324.121.213-.064.814-.2,1.249a2.93,2.93,0,0,0-.2,1.785,2.749,2.749,0,0,0,1.323,1.212c.38.222.86.509.9.73.037.241-.333.694-.638,1.046a2.81,2.81,0,0,0-.86,1.553,2.884,2.884,0,0,0,.694,1.656c.268.4.6.888.527,1.137-.056.23-.574.471-.981.656a2.774,2.774,0,0,0-1.432,1.073,2.934,2.934,0,0,0,.037,1.8c.1.491.221,1.092.074,1.3-.121.166-.685.193-1.1.213a4.3,4.3,0,0,0-1.212.184Z" transform="translate(81.403 68.518)" fill="#54a0d8"/>
    <path id="Path_28282" data-name="Path 28282" d="M227.057,194.232a2.479,2.479,0,0,1,.665,1.9c-.176.646-.841.962-1.489,1.257-.416.195-.878.408-.989.638a2.658,2.658,0,0,0,.1,1.212,2.57,2.57,0,0,1-.074,2.025,2.182,2.182,0,0,1-1.8.6,2.284,2.284,0,0,0-1.12.213L221.342,202a1.56,1.56,0,0,1,.332-.572,2.613,2.613,0,0,1,1.748-.491c.408-.018.981-.045,1.1-.213.148-.213.019-.814-.082-1.294a2.9,2.9,0,0,1-.029-1.812,2.738,2.738,0,0,1,1.434-1.073c.408-.185.925-.425.981-.657s-.269-.74-.536-1.146a2.964,2.964,0,0,1-.694-1.637,2.906,2.906,0,0,1,.86-1.563c.3-.351.685-.805.648-1.055-.037-.213-.519-.5-.9-.72a2.78,2.78,0,0,1-1.332-1.212,2.984,2.984,0,0,1,.213-1.795c.14-.435.324-1.036.195-1.249-.1-.176-.657-.25-1.073-.314a2.555,2.555,0,0,1-1.674-.628,1.532,1.532,0,0,1-.287-.675l.971.027a.156.156,0,0,0,.037.064,2.3,2.3,0,0,0,1.083.3c.693.1,1.415.193,1.747.767a2.519,2.519,0,0,1-.119,1.988,2.7,2.7,0,0,0-.222,1.2c.092.24.536.5.925.73.611.351,1.239.73,1.35,1.378.1.667-.388,1.239-.86,1.795a2.6,2.6,0,0,0-.648,1.007,2.748,2.748,0,0,0,.546,1.083" transform="translate(82.353 68.42)" fill="#54a0d8"/>
    <path id="Path_28283" data-name="Path 28283" d="M229.1,193.692a2.479,2.479,0,0,1,.665,1.9c-.176.648-.841.962-1.489,1.258-.406.195-.868.408-.98.628a2.672,2.672,0,0,0,.1,1.221,7.686,7.686,0,0,1,.139.777c-.3.139-.6.269-.9.4v-.019a5.073,5.073,0,0,0-.148-.96,2.976,2.976,0,0,1-.037-1.812,2.763,2.763,0,0,1,1.434-1.073c.408-.185.925-.425.981-.657.073-.25-.269-.749-.536-1.147a2.95,2.95,0,0,1-.694-1.637,2.857,2.857,0,0,1,.86-1.553c.3-.361.693-.814.648-1.054-.037-.222-.519-.5-.9-.731a2.773,2.773,0,0,1-1.332-1.212,2.907,2.907,0,0,1,.2-1.775,5.8,5.8,0,0,0,.24-.906v-.019l.915.1a1.821,1.821,0,0,1-.055.3,7.075,7.075,0,0,1-.213.8,2.612,2.612,0,0,0-.222,1.174c.092.25.536.508.925.74.611.351,1.239.73,1.35,1.378.111.665-.379,1.239-.851,1.795a2.381,2.381,0,0,0-.648,1.007,2.5,2.5,0,0,0,.536,1.073" transform="translate(84.206 68.952)" fill="#54a0d8"/>
    <path id="Path_28284" data-name="Path 28284" d="M229.057,199.215a2.2,2.2,0,0,1,.133-1.036,3.207,3.207,0,0,1,1.662-1.345c.476-.239,1.07-.535,1.14-.822.074-.31-.311-.934-.622-1.434a3.924,3.924,0,0,1-.808-2.057,3.7,3.7,0,0,1,1-1.948c.353-.451.79-1.011.748-1.32-.041-.27-.6-.624-1.044-.908a3.254,3.254,0,0,1-1.53-1.516,2.3,2.3,0,0,1-.07-.977l1.061.15a1.1,1.1,0,0,0,.018.439c.1.292.611.619,1.063.907.705.449,1.434.912,1.559,1.726a3.164,3.164,0,0,1-.988,2.246,3.2,3.2,0,0,0-.749,1.257,3.447,3.447,0,0,0,.627,1.358,3.277,3.277,0,0,1,.767,2.371c-.2.815-.974,1.2-1.725,1.578-.476.239-1.015.508-1.144.8a.987.987,0,0,0-.034.438Z" transform="translate(85.22 69.149)" fill="#54a0d8"/>
    <path id="Path_28285" data-name="Path 28285" d="M215.788,190.037a1.052,1.052,0,1,0,1.052-1.052,1.053,1.053,0,0,0-1.052,1.052" transform="translate(80.287 70.314)" fill="#fff"/>
    <path id="Path_28286" data-name="Path 28286" d="M215.788,190.037a1.052,1.052,0,1,0,1.052-1.052A1.053,1.053,0,0,0,215.788,190.037Z" transform="translate(80.287 70.314)" fill="none" stroke="#54a0d8" stroke-miterlimit="10" stroke-width="1"/>
  </g>
</svg>
