<svg xmlns="http://www.w3.org/2000/svg" xmlns:xlink="http://www.w3.org/1999/xlink" width="73.709" height="104.211" viewBox="0 0 73.709 104.211">
  <defs>
    <clipPath id="clip-path">
      <rect id="Rectangle_2552" data-name="Rectangle 2552" width="73.709" height="104.211" fill="none"/>
    </clipPath>
  </defs>
  <g id="Group_15717" data-name="Group 15717" transform="translate(-508 -1198)">
    <g id="Group_14112" data-name="Group 14112" transform="translate(508 1198)">
      <g id="Group_14111" data-name="Group 14111" transform="translate(0 0)" clip-path="url(#clip-path)">
        <path id="Path_27661" data-name="Path 27661" d="M36.862,0c6.207,10.6,12.4,19.467,17.972,27.449,10.945,15.675,18.875,27,18.875,39.92A36.854,36.854,0,0,1,0,67.369c0-12.916,7.919-24.245,18.879-39.92C24.467,19.465,30.643,10.6,36.858,0Z" transform="translate(0 0)" fill="#66b0f2"/>
      </g>
    </g>
    <path id="Icon_material-remove-red-eye" data-name="Icon material-remove-red-eye" d="M20.455,6.75A20.38,20.38,0,0,0,1.5,19.674a20.362,20.362,0,0,0,37.91,0A20.38,20.38,0,0,0,20.455,6.75Zm0,21.54a8.616,8.616,0,1,1,8.616-8.616A8.619,8.619,0,0,1,20.455,28.29Zm0-13.785a5.17,5.17,0,1,0,5.17,5.17A5.163,5.163,0,0,0,20.455,14.5Z" transform="translate(524.5 1249.402)" fill="#fff"/>
  </g>
</svg>
